<?xml version="1.0" encoding="utf-8"?>
<!-- Generator: Adobe Illustrator 16.0.3, SVG Export Plug-In . SVG Version: 6.00 Build 0)  -->
<!DOCTYPE svg PUBLIC "-//W3C//DTD SVG 1.1//EN" "http://www.w3.org/Graphics/SVG/1.1/DTD/svg11.dtd">
<svg version="1.1" id="Layer_1" xmlns="http://www.w3.org/2000/svg" xmlns:xlink="http://www.w3.org/1999/xlink" x="0px" y="0px"
	 width="612px" height="792px" viewBox="0 0 612 792" enable-background="new 0 0 612 792" xml:space="preserve">
<circle fill="#266C88" cx="275.302" cy="365.697" r="193.023"/>
<g>
	<path fill="#DDDCDB" d="M247.393,324.083c0.252-8.203-0.168-18.433,6.016-25.55c-0.017,1.805-0.326,3.629,0.742,5.19
		c2.067-4.607,4.473-6.5,9.542-7.572c-3.075,1.275-2.262,4.954,0.449,6.882c1.338-0.814,1.912-2.438,2.593-3.832
		c0.266,1.074,0.617,2.083,0.725,3.19c2.035-1.501,2.722-4.576,3.842-6.615c1.061,1.727,1.322,3.792,1.823,5.615
		c1.56-1.835,3.554-4.898,4.351-7.281c0.371,1.191,0.227,3.07,0.301,4.54c3.18-2.642,4.797-3.633,6.016-7.866
		c10.402,4.937,12.825,16.245,13.269,26.652c0.303,7.096-0.604,14.91,0.333,21.979c0.648,4.894,2.501,9.533,3,14.668
		c0.189,1.948,0.405,3.854,0.266,5.858c-11.027,4.43-24.591,3.811-35.933,4.401c-1.109,0.058-4.72,0.564-5.741,0
		c-3.082-1.703-2.981-10.808-3.518-14.273c-0.742-4.78-1.691-9.956-3.308-14.56c-1.06-3.019-3.001-4.925-4.1-7.742
		c-0.6-1.537-1.027-3.351-1-4.967c0,0.428,0,0.855,0,1.283"/>
	<path fill="#C1B4AB" d="M290.394,304.416c2.497-4.093,2.503-11.002,4.25-16c2.238-6.403,5.499-12.647,9.675-18
		c7.181-9.205,16.059-17.721,25.723-24.26c1.65-1.116,3.576-2.344,5.301-2.931c-0.279,0.464-0.542,0.678-0.884,0.997
		c-0.499,0.929-1.017,1.665-1.69,2.728c5.036-2.664,8.209-6.671,13.953-8.45c6.157-1.906,12.498-2.802,18.689-4.083
		c5.54-1.146,11.439-1.333,17.315-1.333c4.392,0,11.95-0.593,15.707,1.009c-0.458,0.133-0.79,0.267-1.307,0.371
		c-0.021,0.19-0.096,0.548-0.281,0.638c1.818,0.593,4.8,0.691,5.914,2.331c-2.419,0.764-3.075,2.178-4.674,3.91
		c1.938,0.246,4.133,1.622,4.591,3.608c-1.446-0.163-3.013-0.025-4.225,0.274c2.833,4.961,3.978,8.737,3.542,14.983
		c-0.33-0.46-0.857-0.786-1.201-1.268c-1.563,7.497-5.79,16.482-10.814,23.571c-5.494,7.75-13.726,13.666-17.659,22.154
		c-1.164,2.513-1.758,7.75-3.959,9.618c1.105-2,3.31-3.063,5.306-3.5c-0.997,2.417-4.031,3.836-6.022,5.72
		c-2.189,2.071-3.353,4.58-4.949,7.104c2.855-2.943,7.886-2.968,10.398,0.494c-2.994,0.815-5.174,1.436-7.998,2.55
		c3.562,2.855,6.759,4.958,7.897,9.641c-0.258-1.062-5.474,0.834-6.476,0.507c-2.446-0.801-4.945-3.748-7.456-4.9
		c-3.91-1.794-7.387-4.993-11.585-7.409c-9.509-5.473-19.333-11.481-30.156-13.822c-7.832-1.693-16.954-1.166-24.185-3.752
		c-1.374-0.491-2.578-0.991-3.482-2.054c-0.293,0.471-0.805,1.292-0.926,1.889"/>
	<path fill="#C1B4AB" d="M351.06,327.416c-1.209,4.673-0.808,11.32,3.908,14.75c3.9,2.836,11.803,3.529,12.426-2.408
		c0.538-5.13-3.752-8.486-7.658-10.325c-1.787-0.841-7.209-2.787-8.676-1.35"/>
	<path fill="#DDDCDB" d="M294.954,315.102c-2.793-13.146,11.786-39.037,19.207-51.224c3.65-5.992,9.548-10.742,15.109-14.509
		c2.414-1.635,4.613-2.969,7.334-3.988c1.864-0.698,6.251-3.07,8.146-2.705c0.108,0.021,0.839-0.214,0.976-0.251
		c-2.04,2.272-4.72,4.179-6.561,6.69c-2.494,3.404-2.482,7.44-4.047,10.992c6.729-12.448,19.781-22.13,33.997-22.487
		c-3.929,6.092-12.343,9.79-14.144,17.525c1.431-5.226,7.851-9.094,12.479-10.829c4.818-1.805,14.023-3.724,19.068-2.289
		c-8.654,3.544-12.521,13.102-17.271,20.891c0.577-2.371,4.207-4.496,6.102-5.874c2.765-2.01,6.363-5.518,9.482-6.456
		c-1.875,4.006-4.411,11.301-8.939,13.017c3.734-2.015,8.391-2.792,11.6-5.736c-1.085,4.263-7.144,14.07-11.249,15.675
		c3.988-2.274,9.443-2.856,13.338-5.96c-0.33,4.146-4.239,7.609-6.483,10.889c-1.856,2.714-4.338,6.315-7.014,7.666
		c4.793-3.235,9.854-10.896,15.368-12.337c-2.596,5.335-6.176,9.926-9.771,14.41c-3.301,4.116-6.918,9.518-10.678,14.054
		c-6.154,7.427-10.929,12.123-14.943,20.678c-4.678,9.967,0.033,11.297-1.333,23.363c-5.56-1.097-28.885-2.771-32.115-7.582
		c-1.83-2.724-5.351-10.798-9.185-10.466c-2.211,0.192-2.598,3.032-3.095,4.846c-0.719,2.619-0.983,3.139-2.342,5.267
		c-1.396,2.189-6.116,9.7-9.152,9.642c-7.082-0.136-2.55-25.955-1.344-30.566c1.409-5.388,2.413-11.145,3.071-16.685
		c0.663-5.566,0.557-12.098,3.138-17.072c1.463-2.82,4.371-9.638,7.104-10.966"/>
	<path fill="#DDDCDB" d="M292.394,370.083c-2.693-0.262-3.659-18.867-3.259-22.657c0.769-7.277,4.445-15.394,9.007-20.676
		c6.938-8.035,19.959-15.357,30.233-9.574c8.279,4.66,5.019,17.562,5.019,25.826c0,2.685,0.572,5.937-0.751,8.233
		c-1.724,2.993-6.882,5-9.843,6.849c-3.543,2.211-7.13,4.021-10.823,5.926c-2.797,1.443-7.32,4.453-10.509,3.872
		c-2.088,1.013-8.702,0.339-9.074,3.202"/>
	<path fill="#DDDCDB" d="M287.727,307.75c-0.76-3.822,3.594-6.799,6.082-9.584c2.322-2.599,4.12-5.478,6.852-7.715
		c0.444,6.754,1.325,13.926,1.023,20.583c-5.327,0.481-14.938,4.145-14.932-5.234c0.317-0.101,0.642-0.117,0.975-0.05"/>
	<path fill="#DDDCDB" d="M252.06,311.25c-1.653-8.021-11.102-10.068-18.924-9.937c2.191,8.809,9.584,17.787,19.349,16.361
		c0.088-1.875,0.051-3.803,0.102-5.702c-0.798-0.404-0.309-0.918-0.526-1.723"/>
	<path fill="#C1B4AB" d="M246.573,311.696C246.354,311.557,246.505,312.847,246.573,311.696
		c-6.014-9.176-16.287-16.322-24.631-23.095c-4.699-3.815-9.259-8.422-14.653-11.385c-5.444-2.992-11.176-4.755-17.054-6.746
		c-9.778-3.311-19.814-5.809-29.818-3.644c-3.426,0.742-6.669,1.415-10.067,2.23c-2.352,0.564-6.166,0.584-7.693,2.021
		c3.458-0.546,8.478-1.04,11.299,0.625c-3.737,1.073-8.186,2.307-11.481,4.625c-2.939,2.067-6.22,5.903-9.537,7.34
		c-0.154,0.351-0.296,1.043-0.336,1.432c1.057-1.832,4.149-2.084,6.187-2.494c-6.17,4.597-12.335,12.115-15.662,18.816
		c4.609,5.547,11.863,4.731,18.034,5.617c5.254,0.754,13.013,4.066,16.523,8.534c-3.365,1.189-7.424,1.192-10.876,0.72
		c3.943,4.92,9.865,7.301,15.165,10.379c-1.334,1.606-3.668,1.52-5.587,1.44c1.756,4.119,4.935,7.437,7,11.428
		c2.129,4.115,4.362,6.618,7.421,9.942c-1.882,0.808-5.495-0.903-7.293-1.395c0.636,4.401,3.278,9.465,5.09,13.599
		c1.659,3.785,4.149,8.574,6.811,11.746c4.162,4.959,10.734,5.99,16.761,5.668c8.074-0.432,16.174-2.657,24.172-3.584
		c15.448-1.793,30.998-4.435,45.821-9.277c2.319-0.757,6.804-1.43,7.907-3.411c1.723-3.092-1.248-10.539-2.336-13.418
		c-3.902-10.33-14.446-18.724-18.276-28.953C247.725,315.815,248.312,314.63,246.573,311.696"/>
	<path fill="#DDDCDB" d="M248.06,314c-4.403-1.562-10.519-9.138-14.734-12.542c-4.878-3.939-9.649-7.782-15.159-10.937
		c-9.785-5.603-19.519-13.618-30.174-16.713c-9.344-2.714-19.995-0.27-29.627-1.61c7.09,0.386,12.418,3.239,17.915,7.668
		c-5.624,0.717-10.598-1.388-16.437-1.345c-4.028,0.029-7.456,0.599-11.03,1.722c-2.887,0.907-2.891,2.267-5.908,2.974
		c-1.047,1.151-5.563,6.629-7.2,7.504c7.766-0.48,14.549-3.375,21.458,0.312c3.561,1.9,6.786,4.061,9.865,6.463
		c3.424,2.67,6.215,6.127,9.637,8.623c-5.074-1.919-8.82-6.495-14.259-8.057c-3.726-1.071-10.564,2.037-14.646,1.416
		c3.055,0.79,7.66,1.095,9.768,3.39c2.992,3.257,6.804,5.943,9.986,9.023c-2.114,0.894-4.969,0.451-7.369,0.54
		c1.274,2.212,2.741,4.461,4.121,6.708c1.385,2.256,3.707,3.875,4.924,5.8c-2.299,0.008-4.329-0.847-6.318-1.412
		c3.96,3.761,4.645,8.259,6.393,13.075c1.909,5.255,3.595,10.489,5.73,15.795c2.055,5.108,5.178,9.459,7.931,14.217
		c2.21,3.819,4.507,10.118,8.802,12.414c2.588,1.384,4.944-0.083,8.087-0.708c4.256-0.846,8.646-0.831,12.896-1.709
		c7.344-1.519,14.562-2.498,22.067-3.264c11.268-1.151,22.888-2.852,33.146-7.52c4.395-1.999,10.334-2.836,9.427-8.455
		c-0.943-5.845-5.352-11.104-8.308-16.278c-3.82-6.69-8.434-12.693-13.696-18.235C252.259,319.608,251.208,316.672,248.06,314"/>
	<path fill="#D2C5CF" d="M249.023,349.741c-1.602-0.459-3.261-6.397-4.393-8.485c-1.898-3.501-4.989-6.125-7.996-8.673
		c-4.662-3.947-11.344-7.489-17.305-9.393c-10.539-3.364-25.004,0.973-30.656,10.67c-3.864,6.63-2.753,15.237-0.784,22.436
		c1.119,4.093,4.503,16.874,10.004,17.646c1.835,0.258,4.126-1.438,5.851-1.847c1.838-0.435,3.891-0.36,5.666-0.633
		c4.218-0.648,8.383-2.235,12.408-3.828c6.383-2.528,13.128-6.335,18.379-10.595c1.738-1.41,3.604-2.748,5.257-4.21
		c1.114-0.985,2.036-2.817,3.758-2.838"/>
	<path fill="#DDDCDB" d="M194.902,371.776c-1.841-3.011-2.213-5.335-1.95-8.974c2.778,2.113,6.943,4.101,10.407,4.436
		c0.618-2.749,4.688-7.422,2.631-10.159c1.953,0.484,5.26,3.713,7.413,3.203c2.348-0.557,1.933-4.465,2.038-6.492
		c2.809,1.776,6.089,3.312,9.425,3.703c0.106-2.126,0.23-4.464-1.112-6.158c2.89,0.884,5.233,2.999,7.85,4.609
		c1.041-1.997,1.647-5.735,0.576-7.836c1.673,1.089,4.021,1.974,4.785,3.899c0.345-1.72,0.414-3.895,0.452-5.87
		c-0.119-0.203-0.342-0.711-0.538-1.024c1.009,1.177,2.125,2.407,3.224,3.405c0.262-2.337,0.055-5.436-1.673-7.171
		c0.578,1.604,2.238,3.959,3.493,5.096c-0.087-3.036-0.844-4.851-1.792-7.609c1.341,3.023,3.712,5.424,5.217,8.367
		c1.179-3.604,2.005-7.693,0.831-11.351c2.434,2.005,5.852,5.35,5.981,8.671c0.202,5.184-9.485,12.237-13.018,15.329
		c-6.651,5.824-14.136,8.161-22.693,9.37c-4.966,0.702-9.312,0.473-14.026,2.495c-2.049,0.879-7.015,3.411-8.68,1.181
		c0.237,0.011,0.796-0.153,1.125-0.156c0.084-0.436,0.278-0.792,0.287-1.213"/>
	<path fill="#D2C5CF" d="M299.676,341.312c0.244-7.254,1.862-14.908,4.625-22.487c3.059-8.395,7.055-11.514,15.373-14.138
		c15.803-4.984,30.516,1.748,32.613,18.625c0.709,5.707-1.183,14.146-3.723,18.277c-9.534,0.091-16.648-4.546-25.901-4.525
		c-5.689,0.013-21.558-1.188-22.987,5.748"/>
	<path fill="#DDDCDB" d="M298.06,344c-0.472-2.723-2.885-7.651-0.499-10.199c2.07-2.212,3.753,2.301,6.012,3.18
		c1.281-1.867,2.667-4.126,3.481-6.167c0.444,0.72,0.814,1.565,1.05,2.399c3.538,0.463,4.632-2.385,6.412-4.891
		c0.487,2.104-0.387,6.524,3.05,5.94c2.354-0.4,4.618-4.928,6.955-6.246c0.071,2.072-0.608,4.097-0.423,6.196
		c3.36,0.563,6.717-2.307,9.411-3.937c0.129,1.941-0.59,4.112,1.039,5.297c1.444,1.051,4.303,0.131,5.718-0.303
		c0.077,1.3,0.008,2.644,0.082,3.942c1.412,0.207,2.753-0.2,3.224-1.629c-0.003,0.959-0.03,1.932,0.026,2.879
		c2.057,0.251,4.171-1.382,5.713-2.487c1.98,1.145,4.602,2.117,6.279,3.519c-1.313,1.92-4.996,3.591-7.036,4.824
		c-3.517,2.126-7.13,3.943-10.977,5.48c-6.952,2.779-14.523,5.2-22.03,5.201c-3.99,0-8.56,0.032-11.683-1.835
		c-3.508-2.097-5.664-6.453-5.805-10.415c-0.018-0.499,0.003-1.001,0-1.5"/>
	<path fill="#DDDCDB" d="M187.726,426.082c-3.257,0.76-7.572,9.617-9.741,12.574c-3.88,5.293-7.923,15.873-4.907,22.791
		c-0.012,0.248-0.025,0.248-0.037,0c2.165-6.494,3.778-12.986,7.377-18.914c-1.843,3.959-2.215,9.25-2.025,13.893
		c0.124,3.016,0.47,5.826,1.418,8.713c0.788,2.402,1.292,5.701,2.516,7.852c0.601-7.752-1.568-15.76,1.418-23.141
		c2.309,15.727,3.138,34.268,13.998,47.783c0.113-4.84-2.373-9.979-3.291-14.793c-0.859-4.506-1.656-10.068-1.392-14.656
		c0.436,6.854,4.105,16.057,7.909,21.834c2.382,3.617,5.826,7.08,8.774,10.332c2.398,2.643,5.057,6.43,8.249,8.016
		c-0.626-3.596-4.517-7.705-5.858-11.463c-1.866-5.225-1.7-10.959-3.449-16.053c3.567,5.16,5.55,10.482,10.375,14.9
		c4.801,4.395,10.673,4.832,15.558,8.207c-2.582-1.975-4.248-6.236-4.916-9.082c3.239,2.248,7.267,3.078,10.282,5.875
		c3.697,3.428,7.181,6.625,11.026,9.891c0.004-3.223-0.763-6.93-1.042-10.07c3.024,5.125,14.497,6.043,20.042,5.795
		c0.146-1.568,0.575-3.188,1.025-4.582c2.826,1.15,5.197,3.227,8.023,4.383c2.646,1.084,5.404,1.48,7.999,2.949
		c2.222-2.062,1.469-1.686,3.993-1.432c1.953,0.195,3.548,0.65,5.675,0.732c4.284,0.168,7.138-0.541,10.65-2.748
		c3.382-2.125,6.556-4.619,9.351-7.504c2.784-2.871,4.372-7.785,7.267-10.047c0.62,2.105,0.32,4.398,0.465,6.598
		c4.421-4.371,7.992-8.252,10.285-14.18c0.054,3.609-1.168,6.73-1.699,10.115c3.972-8.748,10.356-16.256,11.739-26.207
		c3.672,2.588,1.721,11.293,1.601,15.205c1.193-4.686,3.812-9.051,4.749-13.873c2.318,4.133,2.496,12.223,1.17,16.799
		c1.549-5.713,6.371-11.264,8.089-17.484c2.44-8.83,3.475-18.229,3.742-27.322c4.263,7.117,1.917,17.383,1.926,25.547
		c0.651-6.471,5.848-12.045,5.658-18.812c0.308,3.014,1.848,6.523,3.274,9.146c0.55-10.477,4.087-23.002,0.189-33.098
		c1.029,0.994,1.795,2.23,2.562,3.414c0.74-5.039,2.349-10.459,3.315-15.541c0.576-3.031,3.094-12.756,0-14.859
		c-2.035-1.383-10.307,3.699-12.677,4.943c-3.746,1.967-7.317,4.186-11.166,6.084c-5.315,2.623-11.135,3.002-16.907,3.898
		c-4.81,0.746-9.706,2.396-14.517,1.582c-3.879-0.654-7.771-1.922-11.617-2.664c-13.503-2.604-26.518,3.432-37.356,11.082
		c-12.422,8.768-27.289,11.58-42.384,9.334c-5.876-0.875-11.766-1.119-17.467-2.816c-5.026-1.494-9.89-2.822-15.152-2.926
		c-5.083-0.098-9.292-0.91-14.022-1.199c-0.133,1.828-0.075,3.363-0.651,4.959c-0.536,1.484-1.86,1.443-1.75,3.574"/>
	<path fill="#DDDCDB" d="M167.81,420.25c-1.88,3.893-5.275,8.082-6.943,12.443c-2.123,5.551-3.337,11.797-1.543,17.736
		c1.55-7.527,4.631-13.676,9.949-19.127c-6.299,11.482-3.84,24.904,1.736,36.682c-0.324-4.531-1.128-8.711-0.006-13.234
		c0.916-3.691,2.855-6.158,4.995-9.258c2.958-4.283,7.06-6.967,10.812-10.486c3.786-3.549,9.411-5.469,11.494-10.244
		c0.614-1.408,1.329-2.877,1.981-4.199c-6.04-3.084-13.74-3.092-20.225-4.062c-3.55-0.531-6.745-0.633-9.957,0.109
		c-0.939,1.4-1.674,2.561-2.043,4.141"/>
	<path fill="#D3CBC5" d="M247.393,378.417c-0.59,1.196-7.333,2.832-9.259,4c-3.307,2.005-6.546,3.839-9.741,6.01
		c-5.673,3.854-9.829,10.242-4.33,16.666c7.309,8.539,19.068,9.988,29.582,8.342c8.407-1.316,23.429-6.662,26.089-15.932
		c3.164-11.03-13.135-13.636-20.118-16.196c-4.117-1.51-12.379-4.921-16.223-2.223"/>
	<path fill="#D3CBC5" d="M331.394,363.75c1.655-1.056,3.447-0.477,5.424-0.501c3.266-0.04,6.722-1.534,10.269-1.499
		c5.313,0.052,8.086,2.644,10.641,6.991c2.952,5.022,1.423,8.14-1.01,13.342c-2.191,4.688-6.309,7.086-10.916,9.324
		c-5.581,2.712-11.961,6.126-18.141,7.259c-5.468,1.002-15.175,1.9-19.707-2.25c-3.146-2.879-4.749-9.951-3.169-13.957
		c2.013-5.101,9.181-8.858,13.535-11.636c2.991-1.908,6.167-3.637,9.422-5.089c2.179-0.973,5.298-1.522,7.652-1.651"/>
	<path fill="#C1B4AB" d="M306.727,388.083c-0.572-6.545,6.531-10.105,12.154-10.624c-3.389,2.239-7.009,4.999-7.491,9.319
		c0.436-1.838,2.01-4.151,3.811-4.67c-0.38,1.37-1.395,2.792-1.933,4.224c-0.504,1.344-0.572,2.709-0.845,4.025
		c0.869-1.239,2.389-2.227,3.782-2.578c-1.006,1.162-1.986,2.667-2.407,4.037c0.655-0.576,1.462-0.917,2.232-1.343
		c-0.89,1.789,1.448,3.721,2.674,5.205c-1.438,0.064-3.137,0.537-4.645,0.242c-1.535-0.299-3.264-1.528-4.5-2.496
		c-3.541-2.77-3.597-5.921-2-9.675"/>
	<path fill="#C1B4AB" d="M277.227,396.416c-1.352-3.914-6.511-6.206-9.834-7.667c-1.608-0.708-3.267-1.072-4.907-1.368
		c-2.143-0.388-4.328,0.887-6.205,0.532c2.581,0.038,4.435,0.489,6.608,1.796c0.951,0.571,1.939,1.264,2.666,2.041
		c0.925,0.988,1.141,2.265,1.979,3.252c-1.108-0.088-2.076-0.868-3.104-1.141c-0.929-0.247-2.036-0.12-2.979-0.245
		c2.704,1.301,5.294,2.841,6.08,5.73c-1.414,0.332-2.738,1.014-4.575,0.811c0.96,0.643,1.95,1.477,3.079,1.789
		c0.08,3.199-4.15,4.787-6.746,4.508c4.124,1.439,9.191,2.273,13.271-0.371c1.985-1.287,3.521-3.326,4.004-5.662
		c0.406-1.963-0.344-4.432,0.663-5.503"/>
	<path fill="#171717" d="M270.56,455.084c0.599,2.584,2.062,5.143,3.125,7.662c1.092,2.59,1.384,5.096,2.922,7.625
		c3.028,4.982,4.659,10.262,6.083,15.713c1.358,5.201,2.679,9.523,7.167,13.213c2.188,1.797,4.839,3.125,7.408,4.24
		c2.018,0.877,4.651,2.428,6.791,2.385c4.837-0.1,5.345-10.215,5.834-13.676c0.373-2.637,0.668-5.387,1.179-7.996
		c0.532-2.715,1.643-5.232,2.167-8.008c1.011-5.35,2.394-10.635,5.116-15.5c1.275-2.277,2.865-4.43,3.551-6.992
		c0.692-2.586,0.458-5.936,0.324-8.666c-0.036-0.748-0.122-1.4-0.334-2.102c-4.881,2.17-10.594,5.334-16.341,5.605
		c-1.356,0.064-2.853-0.039-4.321,0.154c-3.054,0.4-5.995,1.312-9.062,1.809c-3.904,0.633-7.978-0.076-11.775-0.764
		c-2.722-0.49-4.884-0.914-7.629-1.305c-0.268,0.143-0.235,0.113-0.501,0.166c-1.327,1.557-2.902,1.881-3.073,4.195
		c-0.129,1.746,2.355,2.928,1.537,4.906"/>
	<path fill="#FFFFFF" d="M281.56,471.5c-2.5,0.25-3.76-2-4.755-3.75s0-3.5,0-3.5s2.005,0.5,3.255,1.25s3.287,3.5,3.019,4.75
		L281.56,471.5z"/>
	<path fill="#FFFFFF" d="M314.213,463.004c2.041,0.203,3.07-1.635,3.883-3.064c0.813-1.428,0-2.857,0-2.857s-1.637,0.408-2.658,1.02
		c-1.021,0.613-2.685,2.859-2.466,3.881L314.213,463.004z"/>
	<path fill="#C180A7" d="M280.81,460.25c3,6.5,3.75,13.25,3.5,18.75s-0.334,13.75,10.083,18.25c0,0,1.417,2.25,3.917,5
		s7.25,7.25,12.75,4s7.5-12.25,7.5-14.5c0,0,4.25-6.5,3-10.5s-6.75-14.25-9.5-17.5s-2.5-10-2.5-11s0-2.834,0-2.834
		s-27,5.084-30,2.084s-2.75-2.084-2.75-2.084L280.81,460.25z"/>
	<path fill="#A05E88" d="M291.727,453.25c2.492,1.781,3.642,5.516,4.798,8.209c1.486,3.463,2.877,6.965,4.451,10.389
		c2.093,4.551,4.905,8.715,6.576,13.465c0.721,2.049,1.538,4.053,2.158,6.139c0.991-3.746-1.923-7.945-3.448-11.15
		c-3.329-7-6.566-14.496-8.52-22.014c-0.513-1.973-0.884-3.977-1.341-5.963c-0.001-0.021-0.151-0.482-0.167-0.674
		c-1.02,0.014-1.98-0.338-3.049-0.148c-0.461,0.08-1.098,0.172-1.418,0.539c-0.921,1.053,0.392,0.787,0.292,2.209"/>
	<path fill="#C1B4AB" d="M271.56,449.416c0.72,0.09,2.27,1.551,3.172,2.125c1.205,0.766,2.276,1.719,3.532,2.338
		c2.837,1.4,7.019,1.939,10.134,2.207c2.918,0.252,6.089,0.223,8.666-1.211c2.215-1.232,3.622-3.314,6.163-3.459
		c2.781-0.158,5.718,0.363,8.37-0.379c2.686-0.754,5.07-2.223,7.463-3.58c2.368-1.342,4.819-2.99,6.459-5.211
		c1.389-1.883,1.96-4.055,2.912-6.127c1.054-2.295,2.142-4.426,2.296-7.033c0.268-4.533-2.65-8.51-6.033-11.336
		c-3.835-3.205-10.188-4.035-14.933-4.834c-3.37-0.568-6.758-1.633-10.234-1.338c-5.259,0.447-8.727,3.553-12.638,6.672
		c-2.754,2.195-5.608,4.438-7.667,7.121c-3.982,5.193-10.029,15.111-7.792,22.045c0.373,1.158,1.028,2.076,1.13,3.334"/>
	<path fill="#C1B4AB" d="M242.56,437.416c-4.096,0.967-6.609,5.297-8.625,9.24c-2.901,5.676-2.541,11.752-2.541,17.791
		c-0.734-7.096,4.546-18.127,11.653-20.256c-3.459,4.088-4.144,10.471-3.325,15.717c0.918,5.881,4.397,9.711,7.349,14.617
		c-1.309-4.441-1.547-9.479-1.348-14.109c0.192-4.467,1.64-7.564,4.516-10.938c-2.176,5.039,0.197,12.459,2.979,16.898
		c2.359,3.766,4.893,7.703,8.35,10.479c-0.393-3.799-1.937-7.533-2.335-11.402c-0.388-3.77-0.71-8.445,0.836-11.99
		c-0.313,6.158,2.838,12.188,7.125,16.273c-0.457-0.436-0.449-4.6-0.488-5.441c-0.097-2.008,0.247-3.939,0.645-5.895
		c0.289-1.418,0.258-3.287,1.174-4.475c0.84,2.84,2.002,6.877,4.836,8.305c-0.428-5.01-0.188-9.6,1.072-14.443
		c0.697-2.684,1.408-5.445,3.162-7.654c1.411-1.777,19.475-19.117,21.704-19.633c-3.044-1.91-1.079-7.752-4.487-8.973
		c-2.125-0.76-21.814,16.5-24.083,17.389c-2.196,0.859-4.333,1.896-6.496,2.834c-5.481,2.377-10.735,1.732-16.134,3.906
		c-0.805,0.324-6.331,1.889-6.37,2.594"/>
	<path fill="#C1B4AB" d="M313.06,435.416c9.63,1.277,18.324,9.512,22.49,17.922c1.311,2.646,2.376,5.52,3.181,8.361
		c0.177-4.658-0.767-8.359-2.708-12.664c-1.738-3.852-4.63-6.627-6.746-10.1c0.801,1.314,4.486,1.055,5.792,1.496
		c1.728,0.584,3.349,1.676,4.581,3.01c2.628,2.844,4.11,6.494,6.01,9.816c-0.434-0.758-0.271-2.773-0.532-3.705
		c-0.409-1.455-1.012-2.84-1.706-4.182c-1.38-2.668-3.156-5.105-4.811-7.604c8.75,0.84,12.057,10.656,14.792,17.588
		c0.167-7.98-2.186-15.723-7.292-21.914c3.446,0.072,5.829,3.395,7.849,5.771c2.339,2.754,4.617,5.557,6.156,8.844
		c-1.279-2.732-1.433-6.07-2.06-8.992c-0.664-3.1-1.586-6.139-2.964-9c-0.829-1.721-1.654-3.475-2.975-4.881
		c-1.534-1.635-3.696-2.521-5.564-3.703c-1.947-1.234-3.771-2.406-6.159-2.434c-5.05-0.062-10.052,0.395-15.134-0.137
		c-3.993-0.416-7.45-1.234-11.16-2.254c-1.748-0.48-18.028-3.166-19.707-3.66c-0.276,4.09-0.866,6.422,0.542,10.254
		c0.912,2.484,19.956,9.971,18.792,12.666"/>
	<path fill="#C1B4AB" d="M304.445,375.385c-8.695-15.904-19.534-70.684,8.926-93.938c0,0-27.659,24.439-7.153,88.257
		L304.445,375.385z"/>
	<path fill="#C1B4AB" d="M305.037,374.831c-6.732-44.854-15.065-78.522,52.375-93.709c0,0-75.181,12.449-47.428,89.199
		L305.037,374.831z"/>
	<path fill="#C1B4AB" d="M304.168,357.75c0.226-18.667,3.927-52,28.076-58.667c0,0-23.733,13.122-19.292,37.728
		c0,0,5.107-29.394,27.107-31.728c0,0-21.46,15-17.685,29.333c0,0,7.019-17.667,19.352-16.667c0,0-12.24,5.981-9.969,17.333
		c0,0,8.302-9,14.969-3.667c0,0-11.667,3-7.667,11.333l3.667,7L304.168,357.75z"/>
	<path fill="#C1B4AB" d="M259.643,369.937c2.298-27.933-13.605-77.33-41.991-86.647c0,0,31.279,9.685,33.941,85.625L259.643,369.937
		z"/>
	<path fill="#C1B4AB" d="M305.774,378.797c-15.766-22.968-29.367-72.792-13.785-93.891c0,0-17.465,22.749,19.022,89.301
		L305.774,378.797z"/>
	<path fill="#C1B4AB" d="M258.582,368.613c-3.554-21.333-17.888-54.667-43.888-60.333c0,0,25.72,5.334,38.031,58.667
		L258.582,368.613z"/>
	<path fill="#C1B4AB" d="M254.389,367.419c-5.361-20.473-23.028-37.14-42.028-44.473c0,0,25.906,16.667,26.287,31.333
		c0,0-15.953-28.667-40.62-27.667c0,0,30.286,14.667,30.31,26c0,0-25.976-24.334-50.31-17.667c0,0,29.843,7.667,31.088,15.667
		c0,0-15.754-7.333-31.088-0.333c0,0,25.408,0.753,27,9.667c0,0-6.883-7.333-17.108-4.333c0,0,11.336,1.786,10.056,14.06
		L254.389,367.419z"/>
	<g>
		<circle fill="#131313" cx="251.825" cy="397.016" r="13.266"/>
		<circle fill="#5C5C5C" cx="251.825" cy="397.014" r="11.123"/>
		<path fill="#131313" d="M260.59,396.953c0,4.875-3.951,8.826-8.824,8.826c-4.874,0-8.825-3.951-8.825-8.826
			c0-4.872,3.951-8.823,8.825-8.823C256.639,388.13,260.59,392.082,260.59,396.953z"/>
		<circle fill="#FFFFFF" cx="247.792" cy="392.92" r="4.034"/>
		<circle fill="#FFFFFF" cx="258.271" cy="401.398" r="2.319"/>
	</g>
	<g>
		<circle fill="#131313" cx="324.973" cy="384.109" r="11.006"/>
		<circle fill="#5C5C5C" cx="324.973" cy="384.108" r="9.229"/>
		<circle fill="#131313" cx="324.923" cy="384.058" r="7.321"/>
		<circle fill="#FFFFFF" cx="321.626" cy="380.711" r="3.346"/>
		<circle fill="#FFFFFF" cx="330.321" cy="387.745" r="1.923"/>
	</g>
	<path fill="#191818" d="M283.226,432.75c0.5-2.668,2.167-7.166,4-8.5c1.834-1.334,9.335-7,15.001-6.668
		c5.666,0.334,9.833,2.168,11.833,4.668s2.501,6.5,2.167,10.5s-1.001,8.498-2.834,10.666c-1.833,2.166-5,3-6.333,3.5
		s-3.334,1.832-11.667,3c0,0-11.833-9.334-12.167-11.834C282.894,435.582,283.226,432.75,283.226,432.75z"/>
	<path fill="#504E4E" d="M296.727,432.082c1.666,2,2.499,10.834-2.334,14.168c0,0,0.334,1.666,2.667,1.332
		c2.333-0.332,11.5-2.334,12.5-4.166c0,0-5.667-5.016-4-9.674l1-2.66c0,0-4.667-1.666-9,0L296.727,432.082z"/>
	<path fill="#131313" d="M379.31,364c-2.25-4.25-4.5-17.75-6-22.5s-6.25-6-13.25-3.25s-59.784,18.535-73,20.75
		c-1.299,0.218-75.25,9-84.75,9s-27.533-2.5-30.283-3.25s-3.51,6.685-2.467,12.615c2.467,14.015-1,34.704-2,40.204
		s12.25,4.432,14.25,5.182s6.25,0.25,11.25,4.25s19,10.75,26.5,11.984S247.81,439,262.06,437s19.75-8,23-13.268
		c3.25-5.266,10.75-9.982,14.237-10.232s6.263,0.75,13.263,5.5s17.25,6.25,32.75,3s32.25-18,37-21.25s2.5-1.75,4.25-7.5
		C388.31,387.5,381.56,368.25,379.31,364z M274.31,402c-4.75,2-18.75,14.5-45,0c0,0-4.25-2-3.75-3.5s2.5-3.75,2.5-3.75
		c8.5-6.5,25.5-16.5,46.25,0C274.31,394.75,279.06,400,274.31,402z M353.56,376.078c-0.5,1.921-9.5,17.921-30.5,17.671
		c0,0-11.25,0.25-13.5-2.5s0-7,0-7c3.75-5.75,17.25-17.5,30.25-16.25s13.75,4.25,13.75,4.25S354.06,374.157,353.56,376.078z"/>
</g>
</svg>
